<?xml version="1.0" encoding="utf-8"?>
<!-- Generator: Adobe Illustrator 24.0.0, SVG Export Plug-In . SVG Version: 6.00 Build 0)  -->
<svg version="1.1" id="Capa_1" xmlns="http://www.w3.org/2000/svg" xmlns:xlink="http://www.w3.org/1999/xlink" x="0px" y="0px"
	 viewBox="0 0 512 512" style="enable-background:new 0 0 512 512;" xml:space="preserve">
<style type="text/css">
	.st0{fill:#FFFFFF;}
</style>
<g>
	<path class="st0" d="M53.5,96.8h405c9.7,0,17.5,7.8,17.5,17.5v0c0,9.7-7.8,17.5-17.5,17.5h-405c-9.7,0-17.5-7.8-17.5-17.5v0
		C36,104.6,43.8,96.8,53.5,96.8z"/>
	<path class="st0" d="M53.5,380.2h405c9.7,0,17.5,7.8,17.5,17.5v0c0,9.7-7.8,17.5-17.5,17.5h-405c-9.7,0-17.5-7.8-17.5-17.5v0
		C36,388.1,43.8,380.2,53.5,380.2z"/>
	<path class="st0" d="M211.4,238.5h247.1c9.7,0,17.5,7.8,17.5,17.5v0c0,9.7-7.8,17.5-17.5,17.5H211.4c-9.7,0-17.5-7.8-17.5-17.5v0
		C193.9,246.3,201.8,238.5,211.4,238.5z"/>
</g>
</svg>
